<svg id="Layer_1" data-name="Layer 1" xmlns="http://www.w3.org/2000/svg" width="48.9795" height="49" viewBox="0 0 48.9795 49"><defs><style>.cls-1{fill:#6cefd6;}.cls-2{fill:#010c07;}</style></defs><title>dl-logo</title><ellipse class="cls-1" cx="24.25" cy="24.5" rx="24" ry="24.5"/><path class="cls-2" d="M15.584,44.3135a4.2875,4.2875,0,0,1-2.666-.8028,3.3275,3.3275,0,0,1-1.3159-1.9316Q7.8763,43.9727,5.689,43.9717q-.137.0176-.2564.0263c-.08.0049-.1655.0088-.2563.0088A4.308,4.308,0,0,1,2.271,42.81Q.75,41.4766.75,38.3662A15.2974,15.2974,0,0,1,2.0488,31.958q2.9393-6.5625,6.7334-9.16a11.29,11.29,0,0,1,6.3233-2.3072,4.09,4.09,0,0,1,3.435,1.3672,4.7525,4.7525,0,0,1,.9058,2.4951Q30.144,10.5959,30.1445,6.7847a2.0212,2.0212,0,0,0-.1709-.9229.8182.8182,0,0,1-.1025-.4272.6132.6132,0,0,1,.2734-.4615,1.0236,1.0236,0,0,1,.6665-.2221,4.6514,4.6514,0,0,1,2.6661,1.5039A5.4564,5.4564,0,0,1,34.793,8.5278a5.7085,5.7085,0,0,1,.2734,1.8116,7.9174,7.9174,0,0,1-.1538,1.521,20.463,20.463,0,0,1-1.7773,4.8876A50.4349,50.4349,0,0,1,29.5635,22.73q-2.2391,3.2988-4.2725,6.1182T21.3945,34.06a33.0435,33.0435,0,0,0-2.3925,3.333c0,.1133.1137.1709.3418.1709a11.3544,11.3544,0,0,0,2.8369-.6153,28.4374,28.4374,0,0,0,6.99-4.2207l-.0683,1.418L29,34.2822q-5.4522,8.4243-11.8945,9.9121c-.2735.045-.5386.0772-.7945.0938S15.8115,44.3135,15.584,44.3135ZM11.67,38.6064a18.5712,18.5712,0,0,1,1.7261-5.23,23.9848,23.9848,0,0,1,2.0762-3.5371A47.2114,47.2114,0,0,1,18.66,25.8057a.68.68,0,0,0,.1538-.4956q0-.786-1.1109-.7862-2.12,0-5.2466,3.9478a13.5285,13.5285,0,0,0-2.9052,8.6474,4.9364,4.9364,0,0,0,.5639,2.29q.53,1.1278,1.35,1.1279Z" transform="translate(-0.75 -1)"/><path class="cls-2" d="M32.0928,44.04a4.5705,4.5705,0,0,1-3.4522-1.3671,6.8879,6.8879,0,0,1-1.5893-4.87v-.4443q.4439-5.8608,4.99-12.6978A177.9574,177.9574,0,0,1,43.1328,9.9292l1.6065-2.0166a2.4014,2.4014,0,0,0,.5639-1.5039,1.3405,1.3405,0,0,1,.53-1.0938.6621.6621,0,0,1,.376-.1025,2.5717,2.5717,0,0,1,1.333.5469,5.8657,5.8657,0,0,1,1.4355,1.5381,4.6031,4.6031,0,0,1,.752,2.4438,4.4717,4.4717,0,0,1-.4273,1.897q-.1538.2907-.6665,1.0937t-1.3842,2.1534Q36.69,30.8813,35.7158,36.1279v.0508a.6216.6216,0,0,0,.1709.4619,1.3924,1.3924,0,0,0,1.0767.3584q2.17,0,5.0757-2.666l.2734-.2734.4956,1.06q-.2226.29-.4614.6231t-.4785.6923q-.7691,1.128-1.6831,2.2725T38.16,41.0322a9.3049,9.3049,0,0,1-5.0244,2.9229c-.1827.0224-.3619.0429-.5381.0595S32.252,44.04,32.0928,44.04Z" transform="translate(-0.75 -1)"/></svg>